<svg width="20" height="20" viewBox="0 0 20 20" fill="none" xmlns="http://www.w3.org/2000/svg">
<path d="M13.716 2.35401C12.6906 1.32891 11.4068 0.600527 10.0009 0.246144C8.59498 -0.108239 7.11933 -0.075398 5.73056 0.341183C4.34179 0.757764 3.09169 1.54254 2.11294 2.61225C1.13418 3.68195 0.463265 4.99667 0.171393 6.41689C-0.120478 7.83712 -0.0224217 9.30987 0.455158 10.6789C0.932738 12.0479 1.77202 13.262 2.88396 14.1925C3.99589 15.123 5.33899 15.7352 6.77073 15.964C8.20247 16.1927 9.66945 16.0297 11.016 15.492L14.596 19.073C15.1891 19.6667 15.9938 20.0004 16.8331 20.0008C17.6723 20.0012 18.4773 19.6682 19.071 19.075C19.6647 18.4819 19.9984 17.6772 19.9988 16.8379C19.9992 15.9987 19.6661 15.1937 19.073 14.6L15.493 11.02C16.0758 9.55989 16.2181 7.961 15.9023 6.42088C15.5865 4.88077 14.8264 3.46692 13.716 2.35401ZM8.03399 14.069C6.63826 14.0695 5.28555 13.586 4.20633 12.7009C3.12712 11.8158 2.38817 10.5839 2.11538 9.21511C1.8426 7.8463 2.05286 6.42525 2.71034 5.19408C3.36782 3.96291 4.43184 2.99779 5.72112 2.46316C7.0104 1.92853 8.44516 1.85746 9.78096 2.26207C11.1168 2.66669 12.2709 3.52194 13.0469 4.68211C13.8228 5.84229 14.1724 7.23561 14.0363 8.62468C13.9001 10.0137 13.2865 11.3126 12.3 12.3C11.741 12.8621 11.0762 13.3078 10.344 13.6114C9.61179 13.915 8.82666 14.0706 8.03399 14.069ZM17.659 16.012C17.8681 16.2323 17.9829 16.5255 17.9789 16.8292C17.975 17.1329 17.8526 17.4231 17.6378 17.6378C17.423 17.8526 17.1329 17.975 16.8292 17.979C16.5255 17.9829 16.2323 17.8681 16.012 17.659L12.826 14.473C13.1402 14.2421 13.4377 13.9892 13.716 13.716C13.9891 13.4377 14.2421 13.1403 14.473 12.826L17.659 16.012ZM9.03499 12C9.03499 12.2652 8.92963 12.5196 8.7421 12.7071C8.55456 12.8947 8.30021 13 8.03499 13C6.71858 12.9984 5.45654 12.4749 4.5256 11.5441C3.59467 10.6134 3.07084 9.35142 3.06899 8.03501C3.06817 7.76797 3.17273 7.51139 3.35996 7.32098C3.54719 7.13057 3.80197 7.0217 4.06899 7.01801C4.19938 7.01589 4.3289 7.03971 4.45 7.08809C4.57111 7.13646 4.68139 7.20843 4.77444 7.2998C4.86748 7.39117 4.94144 7.50013 4.99201 7.62034C5.04257 7.74054 5.06874 7.8696 5.06899 8.00001V8.03501C5.06978 8.82131 5.38256 9.57516 5.93865 10.1311C6.49474 10.687 7.24869 10.9995 8.03499 11C8.30021 11 8.55456 11.1054 8.7421 11.2929C8.92963 11.4804 9.03499 11.7348 9.03499 12Z" fill="#979797" fill-opacity="0.39"/>
</svg>
